<svg width="56" height="56" viewBox="0 0 56 56" fill="none" xmlns="http://www.w3.org/2000/svg">
<g id="logo03 1" clip-path="url(#clip0_63_2336)">
<g id="storage_x2F_wholesaler">
<g id="Group">
<g id="Group_2">
<path id="Vector" d="M3.5 46.375H0.875C0.391781 46.375 0 45.9832 0 45.5C0 45.0168 0.391781 44.625 0.875 44.625H2.625V8.75C2.625 8.36981 2.87044 8.03338 3.23225 7.917L27.7323 0.042C27.9064 -0.014 28.0938 -0.014 28.2677 0.042L52.7677 7.917C53.1296 8.03338 53.375 8.36981 53.375 8.75V21C53.375 21.4832 52.9832 21.875 52.5 21.875C52.0168 21.875 51.625 21.4832 51.625 21V9.38787L28 1.79419L4.375 9.38787V45.5C4.375 45.9832 3.98322 46.375 3.5 46.375Z" fill="#999999"/>
</g>
<g id="Group_3">
<path id="Vector_2" d="M10.5 42C10.0168 42 9.625 41.6082 9.625 41.125V13.125C9.625 12.6418 10.0168 12.25 10.5 12.25H44.625C45.1082 12.25 45.5 12.6418 45.5 13.125V21C45.5 21.4832 45.1082 21.875 44.625 21.875C44.1418 21.875 43.75 21.4832 43.75 21V14H11.375V41.125C11.375 41.6082 10.9832 42 10.5 42Z" fill="#999999"/>
</g>
<g id="Group_4">
<path id="Vector_3" d="M44.625 21H10.5C10.0168 21 9.625 20.6082 9.625 20.125C9.625 19.6418 10.0168 19.25 10.5 19.25H44.625C45.1082 19.25 45.5 19.6418 45.5 20.125C45.5 20.6082 45.1082 21 44.625 21Z" fill="#999999"/>
</g>
<g id="Group_5">
<path id="Vector_4" d="M28.875 27.125H10.5C10.0168 27.125 9.625 26.7332 9.625 26.25C9.625 25.7668 10.0168 25.375 10.5 25.375H28.875C29.3582 25.375 29.75 25.7668 29.75 26.25C29.75 26.7332 29.3582 27.125 28.875 27.125Z" fill="#999999"/>
</g>
</g>
<g id="Group_6">
<g id="Group_7">
<path id="Vector_5" d="M55.125 56H39.375C38.8918 56 38.5 55.6082 38.5 55.125V40.25C38.5 39.7668 38.8918 39.375 39.375 39.375H55.125C55.6082 39.375 56 39.7668 56 40.25V55.125C56 55.6082 55.6082 56 55.125 56ZM40.25 54.25H54.25V41.125H40.25V54.25Z" fill="#E84039"/>
</g>
<g id="Group_8">
<path id="Vector_6" d="M47.25 45.5C46.7668 45.5 46.375 45.1082 46.375 44.625V40.25C46.375 39.7668 46.7668 39.375 47.25 39.375C47.7332 39.375 48.125 39.7668 48.125 40.25V44.625C48.125 45.1082 47.7332 45.5 47.25 45.5Z" fill="#E84039"/>
</g>
</g>
<g id="Group_9">
<g id="Group_10">
<path id="Vector_7" d="M52.5 41.125C52.0168 41.125 51.625 40.7332 51.625 40.25V27.125H37.625V35C37.625 35.4832 37.2332 35.875 36.75 35.875C36.2668 35.875 35.875 35.4832 35.875 35V26.25C35.875 25.7668 36.2668 25.375 36.75 25.375H52.5C52.9832 25.375 53.375 25.7668 53.375 26.25V40.25C53.375 40.7332 52.9832 41.125 52.5 41.125Z" fill="#E84039"/>
</g>
<g id="Group_11">
<path id="Vector_8" d="M44.625 30.625C44.1418 30.625 43.75 30.2332 43.75 29.75V26.25C43.75 25.7668 44.1418 25.375 44.625 25.375C45.1082 25.375 45.5 25.7668 45.5 26.25V29.75C45.5 30.2332 45.1082 30.625 44.625 30.625Z" fill="#E84039"/>
</g>
</g>
<g id="Group_12">
<g id="Group_13">
<path id="Vector_9" d="M39.375 56H23.625C23.1418 56 22.75 55.6082 22.75 55.125V40.25C22.75 39.7668 23.1418 39.375 23.625 39.375H39.375C39.8582 39.375 40.25 39.7668 40.25 40.25C40.25 40.7332 39.8582 41.125 39.375 41.125H24.5V54.25H39.375C39.8582 54.25 40.25 54.6418 40.25 55.125C40.25 55.6082 39.8582 56 39.375 56Z" fill="#E84039"/>
</g>
<g id="Group_14">
<path id="Vector_10" d="M31.5 45.5C31.0168 45.5 30.625 45.1082 30.625 44.625V40.25C30.625 39.7668 31.0168 39.375 31.5 39.375C31.9832 39.375 32.375 39.7668 32.375 40.25V44.625C32.375 45.1082 31.9832 45.5 31.5 45.5Z" fill="#E84039"/>
</g>
</g>
</g>
</g>
<defs>
<clipPath id="clip0_63_2336">
<rect width="56" height="56" fill="white"/>
</clipPath>
</defs>
</svg>
