<svg width="56" height="56" viewBox="0 0 56 56" fill="none" xmlns="http://www.w3.org/2000/svg">
<g id="&#236;&#164;&#145;&#234;&#176;&#132;&#236;&#160;&#144;&#234;&#178;&#128;&#236;&#139;&#164;&#236;&#139;&#156;&#234;&#176;&#132;&#237;&#148;&#188;&#235;&#147;&#156;&#235;&#176;&#177; 1" clip-path="url(#clip0_73_1001)">
<g id="influence_x2F_social_campaign_x2F_brand_engagement">
<g id="Group">
<g id="Group_2">
<path id="Vector" d="M55.2342 48.125C55.1362 48.125 55.0375 48.1086 54.9417 48.0747L44.7779 44.4682C40.9498 46.8619 36.5575 48.125 32.0469 48.125C18.7788 48.125 7.98438 37.3306 7.98438 24.0625C7.98438 10.7944 18.7788 0 32.0469 0C45.3149 0 56.1094 10.7944 56.1094 24.0625C56.1094 28.5707 54.8465 32.9628 52.4523 36.7933L56.0588 46.9573C56.1717 47.2754 56.0914 47.63 55.853 47.8686C55.6861 48.0358 55.4625 48.125 55.2342 48.125ZM32.0469 1.75C19.7437 1.75 9.73438 11.7593 9.73438 24.0625C9.73438 36.3657 19.7437 46.375 32.0469 46.375C36.3628 46.375 40.5622 45.1275 44.1906 42.7672C44.4194 42.6182 44.7033 42.5849 44.9606 42.6759L53.7954 45.8108L50.6605 36.976C50.5693 36.7192 50.603 36.4348 50.7515 36.2064C53.1116 32.5752 54.3594 28.376 54.3594 24.0625C54.3594 11.7593 44.35 1.75 32.0469 1.75Z" fill="#999999"/>
</g>
<g id="Group_3">
<path id="Vector_2" d="M0.984362 55.9999C0.756206 55.9999 0.532424 55.9107 0.365518 55.7436C0.126861 55.5049 0.0468 55.1503 0.159675 54.8322L3.20074 46.2621C1.17686 43.0029 0.109362 39.2699 0.109362 35.4374C0.109362 31.7298 1.1073 28.0953 2.99533 24.9269C3.24252 24.5117 3.77955 24.3755 4.19474 24.6231C4.60992 24.8705 4.74599 25.4075 4.49858 25.8225C2.77199 28.7203 1.85936 32.0448 1.85936 35.4374C1.85936 39.0752 2.91133 42.6155 4.90174 45.6758C5.05027 45.9042 5.08395 46.1888 4.99295 46.4456L2.42374 53.686L9.66414 51.1168C9.92096 51.0253 10.2051 51.0592 10.4339 51.2078C13.4938 53.1977 17.034 54.2499 20.6719 54.2499C23.973 54.2499 27.2201 53.3828 30.0621 51.7424C30.4808 51.5005 31.0159 51.6442 31.2574 52.0626C31.4989 52.4813 31.3556 53.0164 30.9371 53.2579C27.8294 55.0519 24.2797 55.9999 20.6719 55.9999C16.8394 55.9999 13.1064 54.9324 9.84724 52.9083L1.27705 55.9494C1.18146 55.9835 1.08258 55.9999 0.984362 55.9999Z" fill="#999999"/>
</g>
</g>
<g id="Group_4">
<g id="Group_5">
<path id="Vector_3" d="M22.8594 24.4999H17.6094C17.1262 24.4999 16.7344 24.1081 16.7344 23.6249C16.7344 23.1417 17.1262 22.7499 17.6094 22.7499H22.5678C25.2243 20.7558 27.7082 18.8319 29.0364 15.688C29.9033 13.6357 29.8915 12.6715 29.8683 10.7506C29.864 10.4059 29.8596 10.0342 29.8596 9.62493C29.8596 9.33246 30.0057 9.05924 30.2492 8.89693C30.3691 8.81708 31.4538 8.13371 32.7012 8.6738C33.9017 9.19377 34.708 10.643 35.0976 12.981C35.4185 14.906 35.1181 19.4396 34.1423 21.3913C33.9262 21.8235 33.4001 21.9985 32.9683 21.7826C32.536 21.5665 32.361 21.0408 32.5769 20.6086C33.3425 19.0776 33.6354 14.8528 33.3716 13.2689C32.9829 10.9366 32.2868 10.4015 32.0058 10.2796C31.8703 10.221 31.7332 10.2123 31.6127 10.2258C31.6142 10.4004 31.6164 10.5677 31.6181 10.7292C31.6428 12.7566 31.6579 13.98 30.6484 16.369C29.0975 20.0403 26.1931 22.2184 23.3844 24.3249C23.233 24.4385 23.0486 24.4999 22.8594 24.4999Z" fill="#E84039"/>
</g>
<g id="Group_6">
<path id="Vector_4" d="M41.2344 28.875H39.4844C39.0012 28.875 38.6094 28.4832 38.6094 28C38.6094 27.5168 39.0012 27.125 39.4844 27.125H41.2344C41.7169 27.125 42.1094 26.7326 42.1094 26.25C42.1094 25.7674 41.7169 25.375 41.2344 25.375C40.7512 25.375 40.3594 24.9832 40.3594 24.5C40.3594 24.0168 40.7512 23.625 41.2344 23.625C42.6818 23.625 43.8594 24.8025 43.8594 26.25C43.8594 27.6975 42.6818 28.875 41.2344 28.875Z" fill="#E84039"/>
</g>
<g id="Group_7">
<path id="Vector_5" d="M40.3594 32.375H38.6094C38.1262 32.375 37.7344 31.9832 37.7344 31.5C37.7344 31.0168 38.1262 30.625 38.6094 30.625H40.3594C40.8419 30.625 41.2344 30.2326 41.2344 29.75C41.2344 29.2674 40.8419 28.875 40.3594 28.875C39.8762 28.875 39.4844 28.4832 39.4844 28C39.4844 27.5168 39.8762 27.125 40.3594 27.125C41.8068 27.125 42.9844 28.3025 42.9844 29.75C42.9844 31.1975 41.8068 32.375 40.3594 32.375Z" fill="#E84039"/>
</g>
<g id="Group_8">
<path id="Vector_6" d="M39.4844 35.875H33.7669C31.6967 35.875 29.6181 35.6694 27.589 35.2632L26.2728 35H21.9844C21.5012 35 21.1094 34.6082 21.1094 34.125C21.1094 33.6418 21.5012 33.25 21.9844 33.25H26.3594C26.4169 33.25 26.4744 33.2557 26.5311 33.2671L27.9324 33.5473C29.8487 33.9305 31.8117 34.125 33.7669 34.125H39.4844C39.9669 34.125 40.3594 33.7326 40.3594 33.25C40.3594 32.7674 39.9669 32.375 39.4844 32.375C39.0012 32.375 38.6094 31.9832 38.6094 31.5C38.6094 31.0168 39.0012 30.625 39.4844 30.625C40.9318 30.625 42.1094 31.8025 42.1094 33.25C42.1094 34.6975 40.9318 35.875 39.4844 35.875Z" fill="#E84039"/>
</g>
<g id="Group_9">
<path id="Vector_7" d="M41.2344 25.375H39.4844C39.0012 25.375 38.6094 24.9832 38.6094 24.5C38.6094 24.0168 39.0012 23.625 39.4844 23.625H41.2344C41.7169 23.625 42.1094 23.2326 42.1094 22.75C42.1094 22.2674 41.7169 21.875 41.2344 21.875H33.3594C32.8762 21.875 32.4844 21.4832 32.4844 21C32.4844 20.5168 32.8762 20.125 33.3594 20.125H41.2344C42.6818 20.125 43.8594 21.3025 43.8594 22.75C43.8594 24.1975 42.6818 25.375 41.2344 25.375Z" fill="#E84039"/>
</g>
</g>
</g>
</g>
<defs>
<clipPath id="clip0_73_1001">
<rect width="56" height="56" fill="white"/>
</clipPath>
</defs>
</svg>
