<svg width="56" height="56" viewBox="0 0 56 56" fill="none" xmlns="http://www.w3.org/2000/svg">
<g id="icon" clip-path="url(#clip0_63_1544)">
<g id="online_1_">
<g id="_laptop_6_">
<g id="Group">
<path id="Vector" d="M3.49872 43.7501C3.0155 43.7501 2.62372 43.3583 2.62372 42.8751V17.5001C2.62372 15.0877 4.58634 13.1251 6.99872 13.1251H11.3737C11.8569 13.1251 12.2487 13.5169 12.2487 14.0001C12.2487 14.4833 11.8569 14.8751 11.3737 14.8751H6.99872C5.55125 14.8751 4.37372 16.0527 4.37372 17.5001V42.8751C4.37372 43.3583 3.98194 43.7501 3.49872 43.7501Z" fill="#999999"/>
</g>
<g id="Group_2">
<path id="Vector_2" d="M52.4987 43.7501C52.0154 43.7501 51.6237 43.3583 51.6237 42.8751V32.3751C51.6237 31.8919 52.0154 31.5001 52.4987 31.5001C52.9819 31.5001 53.3737 31.8919 53.3737 32.3751V42.8751C53.3737 43.3583 52.9819 43.7501 52.4987 43.7501Z" fill="#999999"/>
</g>
<g id="Group_3">
<path id="Vector_3" d="M48.1253 56.0001H7.87531C3.5329 56.0001 0.000305176 52.4675 0.000305176 48.1251C0.000305176 47.6419 0.392086 47.2501 0.875305 47.2501H22.7503C23.2335 47.2501 23.6253 47.6419 23.6253 48.1251V49.0001H32.3753V48.1251C32.3753 47.6419 32.7671 47.2501 33.2503 47.2501H55.1253C55.6085 47.2501 56.0003 47.6419 56.0003 48.1251C56.0003 52.4675 52.4677 56.0001 48.1253 56.0001ZM1.81265 49.0001C2.23856 51.9644 4.79509 54.2501 7.87531 54.2501H48.1253C51.2055 54.2501 53.7623 51.9644 54.188 49.0001H34.1253V49.8751C34.1253 50.3583 33.7335 50.7501 33.2503 50.7501H22.7503C22.2671 50.7501 21.8753 50.3583 21.8753 49.8751V49.0001H1.81265Z" fill="#999999"/>
</g>
</g>
<g id="Group_4">
<path id="Vector_4" d="M16.6237 36.7501C16.4977 36.7501 16.371 36.723 16.2527 36.6674C15.9453 36.5235 15.7489 36.2146 15.7489 35.8751V4.37512C15.7489 1.96275 17.7115 0.00012207 20.1239 0.00012207H51.6239C54.0363 0.00012207 55.9989 1.96275 55.9989 4.37512V23.6251C55.9989 26.0375 54.0363 28.0001 51.6239 28.0001H27.4404L17.1837 36.5473C17.0236 36.681 16.8245 36.7501 16.6237 36.7501ZM20.1237 1.75012C18.6762 1.75012 17.4987 2.92765 17.4987 4.37512V34.007L24.7069 28.0001H23.6237C23.1405 28.0001 22.7487 27.6083 22.7487 27.1251C22.7487 26.6419 23.1405 26.2501 23.6237 26.2501H27.1169C27.1211 26.2501 27.1252 26.2501 27.1296 26.2501H51.6237C53.0712 26.2501 54.2487 25.0726 54.2487 23.6251V4.37512C54.2487 2.92765 53.0712 1.75012 51.6237 1.75012H20.1237Z" fill="#999999"/>
</g>
<g id="Group_5">
<g id="Group_6">
<path id="Vector_5" d="M36.7487 17.5002C36.5173 17.5002 36.2946 17.4085 36.1301 17.244L32.6301 13.744C32.2882 13.4021 32.2882 12.8482 32.6301 12.5065C32.9716 12.1648 33.5261 12.1648 33.8673 12.5065L36.6665 15.3057L42.1831 8.21312C42.4795 7.83162 43.0292 7.76294 43.411 8.05956C43.7922 8.35619 43.8612 8.9059 43.5643 9.2874L37.4393 17.1624C37.2853 17.3606 37.0534 17.4829 36.8032 17.4986C36.7848 17.4997 36.7667 17.5002 36.7487 17.5002Z" fill="#E84039"/>
</g>
<g id="Group_7">
<path id="Vector_6" d="M42.8737 21.8751H28.8737C28.3905 21.8751 27.9987 21.4833 27.9987 21.0001V7.00012C27.9987 6.5169 28.3905 6.12512 28.8737 6.12512H37.6237C38.1069 6.12512 38.4987 6.5169 38.4987 7.00012C38.4987 7.48334 38.1069 7.87512 37.6237 7.87512H29.7487V20.1251H41.9987V16.6251C41.9987 16.1419 42.3905 15.7501 42.8737 15.7501C43.3569 15.7501 43.7487 16.1419 43.7487 16.6251V21.0001C43.7487 21.4833 43.3569 21.8751 42.8737 21.8751Z" fill="#E84039"/>
</g>
</g>
</g>
</g>
<defs>
<clipPath id="clip0_63_1544">
<rect width="56" height="56" fill="white"/>
</clipPath>
</defs>
</svg>
