<svg width="56" height="62" viewBox="0 0 56 62" fill="none" xmlns="http://www.w3.org/2000/svg">
<g id="&#235;&#130;&#169;&#237;&#146;&#136;&#236;&#158;&#148;&#234;&#184;&#136; 1" clip-path="url(#clip0_73_1019)">
<g id="loan_x2F_sponsor_investments">
<g id="Group">
<g id="Group_2">
<path id="Vector" d="M44.8973 29.9308H36.149C35.7975 29.9308 35.4451 29.8922 35.1019 29.8159L26.9292 27.9998H22.2076C21.6744 27.9998 21.2421 27.5675 21.2421 27.0343C21.2421 26.5011 21.6744 26.0688 22.2076 26.0688H27.0352C27.1057 26.0688 27.1759 26.0765 27.2447 26.0917L35.5209 27.9308C35.7268 27.9764 35.9382 27.9998 36.1492 27.9998H44.8975C45.6962 27.9998 46.3458 27.3502 46.3458 26.5515C46.3458 25.7528 45.6962 25.1032 44.8975 25.1032C44.3643 25.1032 43.932 24.6709 43.932 24.1377C43.932 23.6045 44.3643 23.1722 44.8975 23.1722H46.8285C47.6273 23.1722 48.2768 22.5227 48.2768 21.7239C48.2768 20.9252 47.6273 20.2757 46.8285 20.2757H45.3803C44.8471 20.2757 44.4148 19.8433 44.4148 19.3101C44.4148 18.7769 44.8471 18.3446 45.3803 18.3446H47.7941C48.5928 18.3446 49.2423 17.6951 49.2423 16.8963C49.2423 16.0976 48.5928 15.4481 47.7941 15.4481H45.863C45.3298 15.4481 44.8975 15.0158 44.8975 14.4826C44.8975 13.9493 45.3298 13.517 45.863 13.517H46.8285C47.6273 13.517 48.2768 12.8675 48.2768 12.0688C48.2768 11.27 47.6273 10.6205 46.8285 10.6205H35.7251C35.1919 10.6205 34.7596 10.1882 34.7596 9.65497C34.7596 9.12176 35.1919 8.68945 35.7251 8.68945H46.8285C48.692 8.68945 50.2079 10.2053 50.2079 12.0688C50.2079 12.7987 49.9752 13.4755 49.58 14.0285C50.5361 14.6262 51.1734 15.688 51.1734 16.8963C51.1734 18.1047 50.5361 19.1665 49.58 19.7642C49.9752 20.3174 50.2079 20.994 50.2079 21.7239C50.2079 23.2251 49.224 24.5008 47.8672 24.9401C48.1284 25.4192 48.2768 25.9686 48.2768 26.5515C48.2766 28.415 46.7607 29.9308 44.8973 29.9308Z" fill="white"/>
</g>
<g id="Group_3">
<path id="Vector_2" d="M23.3387 12.5516H21.2419C20.7086 12.5516 20.2763 12.1193 20.2763 11.5861C20.2763 11.0529 20.7086 10.6205 21.2419 10.6205H23.3387C23.5965 10.6205 23.8391 10.5199 24.0218 10.3376L28.4497 5.90979C29.1029 5.25637 29.9255 4.8062 30.8282 4.60779L35.3507 3.61548C35.8719 3.50179 36.3867 3.83079 36.5009 4.35169C36.6153 4.87258 36.2853 5.38744 35.7647 5.50186L31.2424 6.49393C30.7008 6.61293 30.2072 6.88303 29.8149 7.27527L25.3871 11.7034C24.8396 12.2503 24.1123 12.5516 23.3387 12.5516Z" fill="white"/>
</g>
<g id="Group_4">
<path id="Vector_3" d="M21.2421 30.8963H8.69037C8.15717 30.8963 7.72485 30.464 7.72485 29.9308C7.72485 29.3976 8.15717 28.9653 8.69037 28.9653H20.2766V9.65491H0.966234C0.433027 9.65491 0.000717163 9.2226 0.000717163 8.68939C0.000717163 8.15619 0.433027 7.72388 0.966234 7.72388H21.2421C21.7753 7.72388 22.2076 8.15619 22.2076 8.68939V29.9308C22.2076 30.464 21.7753 30.8963 21.2421 30.8963Z" fill="white"/>
</g>
<g id="Group_5">
<path id="Vector_4" d="M15.4512 26.0689C14.3864 26.0689 13.5201 25.2025 13.5201 24.1378C13.5201 23.0731 14.3864 22.2068 15.4512 22.2068C16.5159 22.2068 17.3822 23.0731 17.3822 24.1378C17.3822 25.2025 16.5159 26.0689 15.4512 26.0689Z" fill="white"/>
</g>
</g>
<g id="Group_6">
<g id="Group_7">
<path id="Vector_5" d="M42.4835 10.6206H36.6904C36.2378 10.6206 35.846 10.3064 35.748 9.86464L33.817 1.17498C33.7533 0.88895 33.823 0.589883 34.0062 0.361297C34.1894 0.13271 34.4665 -4.86006e-05 34.7593 -4.86006e-05H39.5869C39.7776 -4.86006e-05 39.964 0.0564334 40.1225 0.162158C40.8153 0.624158 41.4895 0.858296 42.126 0.858296C43.1135 0.858296 43.7155 0.298055 43.7406 0.2744C44.0435 -0.0292552 44.5072 -0.0920146 44.8833 0.114847C45.2598 0.321468 45.4503 0.75595 45.3569 1.17498L43.4258 9.86464C43.3278 10.3064 42.9361 10.6206 42.4835 10.6206ZM37.465 8.68961H41.7089L43.0411 2.69592C42.7613 2.75385 42.4557 2.78909 42.126 2.78909C41.1868 2.78909 40.2394 2.50064 39.3055 1.93074H35.9629L37.465 8.68961Z" fill="white"/>
</g>
<g id="Group_8">
<path id="Vector_6" d="M38.6214 61.793C32.9736 61.793 28.5764 60.3445 25.5522 57.4873C22.7324 54.8237 21.2421 50.9706 21.2421 46.3448C21.2421 39.2975 28.8711 31.737 33.4187 27.8575C33.8245 27.5112 34.4337 27.5599 34.7799 27.9654C35.126 28.3712 35.0775 28.9807 34.672 29.3266C31.2147 32.276 23.1731 39.8386 23.1731 46.3448C23.1731 55.0615 28.6594 59.862 38.6214 59.862C48.5834 59.862 54.0697 55.0615 54.0697 46.3448C54.0697 40.7431 48.7528 34.0687 43.7765 29.6903C43.3763 29.3382 43.3375 28.7279 43.6896 28.3275C44.0418 27.9275 44.652 27.8882 45.0525 28.2406C47.621 30.5004 56.0007 38.485 56.0007 46.3448C56.0007 50.9706 54.5102 54.8237 51.6906 57.4873C48.6664 60.3445 44.2692 61.793 38.6214 61.793Z" fill="white"/>
</g>
<g id="Group_9">
<g id="Group_10">
<path id="Vector_7" d="M39.5869 51.1725H37.6559C37.5526 51.1725 35.1142 51.1445 33.8957 48.7078C33.6574 48.2306 33.8505 47.6508 34.3275 47.4123C34.8037 47.1738 35.3843 47.3669 35.623 47.8441C36.2974 49.1934 37.6112 49.2403 37.667 49.2415H39.5869C40.6516 49.2415 41.518 48.3752 41.518 47.3104C41.518 46.2457 40.6516 45.3794 39.5869 45.3794H37.6559C35.5264 45.3794 33.7938 43.6468 33.7938 41.5173C33.7938 39.3879 35.5264 37.6553 37.6559 37.6553H39.5869C39.6902 37.6553 42.1286 37.6833 43.3471 40.12C43.5854 40.5972 43.3923 41.177 42.9153 41.4155C42.4383 41.6535 41.8583 41.4606 41.6198 40.9837C40.9454 39.6343 39.6316 39.5875 39.5758 39.5863H37.6559C36.5912 39.5863 35.7249 40.4526 35.7249 41.5173C35.7249 42.5821 36.5912 43.4484 37.6559 43.4484H39.5869C41.7164 43.4484 43.449 45.181 43.449 47.3104C43.449 49.4399 41.7164 51.1725 39.5869 51.1725Z" fill="white"/>
</g>
<g id="Group_11">
<path id="Vector_8" d="M38.6214 39.5862C38.0882 39.5862 37.6559 39.1539 37.6559 38.6207V36.6896C37.6559 36.1564 38.0882 35.7241 38.6214 35.7241C39.1546 35.7241 39.5869 36.1564 39.5869 36.6896V38.6207C39.5869 39.1539 39.1546 39.5862 38.6214 39.5862Z" fill="white"/>
</g>
<g id="Group_12">
<path id="Vector_9" d="M38.6214 53.1035C38.0882 53.1035 37.6559 52.6712 37.6559 52.138V50.207C37.6559 49.6738 38.0882 49.2415 38.6214 49.2415C39.1546 49.2415 39.5869 49.6738 39.5869 50.207V52.138C39.5869 52.6712 39.1546 53.1035 38.6214 53.1035Z" fill="white"/>
</g>
</g>
</g>
</g>
</g>
<defs>
<clipPath id="clip0_73_1019">
<rect width="56" height="61.7931" fill="white"/>
</clipPath>
</defs>
</svg>
