<svg width="50" height="50" viewBox="0 0 50 50" fill="none" xmlns="http://www.w3.org/2000/svg">
<g id="logo6" clip-path="url(#clip0_63_2362)">
<g id="cruise_ship">
<g id="Group">
<path id="Vector" d="M36.1894 50.0108C32.6267 50.0108 28.6839 49.6606 24.7978 48.6286C13.1443 45.5327 0.994313 48.4291 0.872744 48.4586C0.45196 48.5618 0.027254 48.3047 -0.0756871 47.8858C-0.178628 47.4666 0.0788223 47.0436 0.499607 46.9411C1.01098 46.8161 13.1643 43.9213 25.202 47.1186C36.6335 50.1557 48.9898 46.9768 49.1135 46.9444C49.5314 46.8334 49.9614 47.0832 50.072 47.5004C50.1826 47.9176 49.9325 48.345 49.5137 48.4551C49.1641 48.5471 43.4726 50.0106 36.1894 50.0108Z" fill="white"/>
</g>
<g id="Group_2">
<g id="Group_3">
<g id="Group_4">
<path id="Vector_2" d="M25 48.6547C24.6261 48.6547 24.3043 48.3918 24.231 48.0266C23.5131 44.4518 21.4096 42.8256 21.3884 42.8096C21.0435 42.5487 20.9761 42.0586 21.238 41.7151C21.4998 41.3713 21.9922 41.3045 22.3369 41.5653C22.4188 41.6272 23.9341 42.7975 24.9998 45.2514C26.0657 42.7975 27.5808 41.6272 27.6627 41.5653C28.0076 41.3045 28.4998 41.3715 28.7616 41.7151C29.0235 42.0588 28.9563 42.5489 28.6112 42.8096C28.5927 42.8239 26.4792 44.4881 25.7686 48.0266C25.6959 48.392 25.3737 48.6547 25 48.6547Z" fill="white"/>
</g>
<g id="Group_5">
<path id="Vector_3" d="M42.1112 49.6865C42.0326 49.6865 41.9524 49.6746 41.8733 49.6498C41.4606 49.519 41.2322 49.0797 41.3633 48.6686L46.022 34.0678C46.1755 33.5873 46.0922 33.0785 45.7935 32.6717C45.5016 32.274 45.0539 32.042 44.561 32.0321C43.4541 32.1369 28.091 33.5938 25 33.5938C21.909 33.5938 6.54569 32.1369 5.43882 32.0317C4.94608 32.0418 4.49863 32.2737 4.20647 32.6713C3.90784 33.0782 3.8247 33.5869 3.97804 34.0672L7.94196 46.4561C8.07353 46.8672 7.84549 47.3067 7.43294 47.4377C7.0198 47.5684 6.57902 47.3418 6.44745 46.9305L2.48333 34.5412C2.17627 33.5803 2.34294 32.5625 2.94019 31.7489C3.53745 30.9352 4.46039 30.4684 5.47255 30.4684C5.49745 30.4684 5.52235 30.4696 5.54725 30.4721C5.71078 30.4879 21.9357 32.0313 25 32.0313C28.0643 32.0313 44.289 30.4879 44.4526 30.4725C44.4773 30.47 44.5024 30.4688 44.5273 30.4688C45.5392 30.4688 46.4624 30.9356 47.0596 31.7492C47.6571 32.5629 47.8235 33.5805 47.5169 34.5412L42.8584 49.1418C42.7524 49.4742 42.4437 49.6865 42.1112 49.6865Z" fill="white"/>
</g>
</g>
<g id="Group_6">
<g id="Group_7">
<path id="Vector_4" d="M25 29.6875C20.239 29.6875 14.8169 28.1599 14.5884 28.0949C14.172 27.9765 13.9308 27.5441 14.0498 27.1293C14.1686 26.7146 14.6027 26.4742 15.0192 26.5925C15.0731 26.6078 20.4624 28.125 25 28.125C30.3016 28.125 34.9022 26.6177 34.948 26.6025C35.3578 26.4666 35.8031 26.6873 35.9402 27.0966C36.0771 27.506 35.8549 27.9482 35.4441 28.0849C35.2471 28.1504 30.5535 29.6875 25 29.6875Z" fill="white"/>
</g>
<g id="Group_8">
<path id="Vector_5" d="M46.1765 28.9062C45.7433 28.9062 45.3922 28.5564 45.3922 28.125C45.3922 27.6941 45.0404 27.3438 44.6078 27.3438H39.902C39.4688 27.3438 39.1176 26.9939 39.1176 26.5625C39.1176 26.1311 39.4688 25.7812 39.902 25.7812H44.6078C44.8825 25.7812 45.1467 25.8283 45.3922 25.9152V22.6562C45.3922 22.2254 45.0404 21.875 44.6078 21.875H39.1176C38.6845 21.875 38.3333 21.5252 38.3333 21.0938C38.3333 20.6623 38.6845 20.3125 39.1176 20.3125H44.6078C45.9053 20.3125 46.9608 21.3639 46.9608 22.6562V28.125C46.9608 28.5564 46.6096 28.9062 46.1765 28.9062Z" fill="white"/>
</g>
<g id="Group_9">
<path id="Vector_6" d="M3.82353 28.9062C3.39039 28.9062 3.03922 28.5564 3.03922 28.125V22.6562C3.03922 21.3639 4.09471 20.3125 5.39216 20.3125H10.8824C11.3155 20.3125 11.6667 20.6623 11.6667 21.0938C11.6667 21.5252 11.3155 21.875 10.8824 21.875H5.39216C4.95961 21.875 4.60784 22.2254 4.60784 22.6562V25.9152C4.85314 25.8285 5.11725 25.7812 5.39216 25.7812H10.098C10.5312 25.7812 10.8824 26.1311 10.8824 26.5625C10.8824 26.9939 10.5312 27.3438 10.098 27.3438H5.39216C4.95961 27.3438 4.60784 27.6941 4.60784 28.125C4.60784 28.5564 4.25667 28.9062 3.82353 28.9062Z" fill="white"/>
</g>
<g id="Group_10">
<path id="Vector_7" d="M47.3347 17.9687H34.7724L34.5461 17.7572C33.9633 17.2123 30.5267 16.4062 25.0002 16.4062C19.4737 16.4062 16.0371 17.2123 15.4545 17.7572L15.2282 17.9687H2.66569C1.94176 17.9687 1.31333 17.4826 1.13725 16.7863L-0.0499988 12.0992C-0.168626 11.6306 -0.0654889 11.1429 0.233139 10.7611C0.533923 10.3765 0.987842 10.156 1.47863 10.156H14.6506C16.3584 9.00776 21.2018 8.59351 25.0004 8.59351C28.799 8.59351 33.6422 9.00776 35.3502 10.156H48.5222C49.0129 10.156 49.4669 10.3765 49.7678 10.7613C50.0663 11.1431 50.1694 11.6308 50.0504 12.0994L48.8633 16.7867C48.6869 17.4826 48.0584 17.9687 47.3347 17.9687ZM35.35 16.4062H47.3347C47.34 16.4062 47.3422 16.4039 47.3427 16.4033L48.5292 11.7169L34.772 11.7187L34.5457 11.507C33.9631 10.9623 30.5267 10.1562 25.0002 10.1562C19.4737 10.1562 16.0373 10.9623 15.4547 11.507L15.2284 11.7187H1.47843L2.65824 16.4044L14.6504 16.4062C16.3584 15.258 21.2018 14.8437 25.0002 14.8437C28.799 14.8437 33.6424 15.2578 35.35 16.4062Z" fill="white"/>
</g>
<g id="Group_11">
<path id="Vector_8" d="M14.8047 24.2187C14.7865 24.2187 14.768 24.2181 14.7494 24.2167C14.3173 24.1869 13.9914 23.8136 14.0216 23.3832L14.4751 16.8943C14.5051 16.4638 14.8782 16.1382 15.312 16.1693C15.7441 16.1992 16.07 16.5724 16.0398 17.0029L15.5863 23.4917C15.5577 23.9037 15.2131 24.2187 14.8047 24.2187Z" fill="white"/>
</g>
<g id="Group_12">
<path id="Vector_9" d="M35.1951 24.2188C34.7976 24.2188 34.4567 23.9188 34.4157 23.5162L33.7429 16.9164C33.699 16.4871 34.0131 16.1039 34.4439 16.0604C34.877 16.0151 35.2596 16.3293 35.3035 16.7588L35.9763 23.3586C36.0202 23.7879 35.7061 24.1711 35.2753 24.2147C35.2484 24.2176 35.2216 24.2188 35.1951 24.2188Z" fill="white"/>
</g>
<g id="Group_13">
<path id="Vector_10" d="M11.6667 7.8127C11.3492 7.8127 11.0502 7.61914 10.9322 7.30566C10.78 6.90156 10.9855 6.45117 11.391 6.29981L15.5349 4.75176C17.0371 4.19062 18.6122 3.90625 20.2165 3.90625H29.6406C31.3396 3.90625 33.0073 4.20742 34.5975 4.80156L38.6082 6.29981C39.0137 6.45117 39.2194 6.90156 39.0673 7.30547C38.9153 7.70918 38.4637 7.91465 38.0576 7.76269L34.0469 6.26445C32.6333 5.73633 31.1508 5.46875 29.6406 5.46875H20.2165C18.8008 5.46875 17.411 5.71973 16.0857 6.21465L11.942 7.76269C11.8514 7.79668 11.7582 7.8127 11.6667 7.8127Z" fill="white"/>
</g>
<g id="Group_14">
<path id="Vector_11" d="M28.1373 5.46875C27.7041 5.46875 27.3529 5.11895 27.3529 4.6875V2.34375C27.3529 1.91289 27.0012 1.5625 26.5686 1.5625H23.4314C22.9988 1.5625 22.6471 1.91289 22.6471 2.34375V4.6875C22.6471 5.11895 22.2959 5.46875 21.8627 5.46875C21.4296 5.46875 21.0784 5.11895 21.0784 4.6875V2.34375C21.0784 1.05137 22.1339 0 23.4314 0H26.5686C27.8661 0 28.9216 1.05137 28.9216 2.34375V4.6875C28.9216 5.11895 28.5704 5.46875 28.1373 5.46875Z" fill="white"/>
</g>
</g>
</g>
</g>
</g>
<defs>
<clipPath id="clip0_63_2362">
<rect width="50" height="50" fill="white"/>
</clipPath>
</defs>
</svg>
