<svg width="56" height="56" viewBox="0 0 56 56" fill="none" xmlns="http://www.w3.org/2000/svg">
<g id="&#236;&#151;&#133;&#236;&#178;&#180;&#236;&#132;&#173;&#236;&#153;&#184;&#235;&#176;&#143;&#234;&#178;&#172;&#236;&#160;&#129; 1" clip-path="url(#clip0_73_952)">
<g id="investments_goals">
<g id="Group">
<g id="Group_2">
<path id="Vector" d="M52.5 56.2197H28C26.0702 56.2197 24.5 54.6433 24.5 52.706C24.5 51.0719 25.6172 49.6945 27.125 49.3034V47.4349C27.125 46.9498 27.5168 46.5565 28 46.5565C28.4832 46.5565 28.875 46.9498 28.875 47.4349V50.0707C28.875 50.5558 28.4832 50.9491 28 50.9491C27.0351 50.9491 26.25 51.7373 26.25 52.706C26.25 53.6746 27.0351 54.4628 28 54.4628H52.5C53.4649 54.4628 54.25 53.6746 54.25 52.706C54.25 51.7373 53.4649 50.9491 52.5 50.9491C52.0168 50.9491 51.625 50.5558 51.625 50.0707V40.4079C51.625 34.1111 46.5222 28.9883 40.25 28.9883C35.2693 28.9883 30.7871 32.3433 29.3506 37.147C29.2114 37.6119 28.7232 37.875 28.261 37.7357C27.7981 37.5961 27.5356 37.1066 27.6745 36.6419C29.3315 31.1012 34.503 27.2314 40.25 27.2314C47.4871 27.2314 53.375 33.1424 53.375 40.4079V49.3034C54.8831 49.6945 56 51.0719 56 52.706C56 54.6433 54.4298 56.2197 52.5 56.2197Z" fill="#999999"/>
</g>
<g id="Group_3">
<path id="Vector_2" d="M42.4375 28.9882H38.0625C35.8914 28.9882 34.125 27.2149 34.125 25.0352C34.125 22.927 35.8369 21.1583 37.9413 21.0922C38.1631 21.0856 38.3757 21.1618 38.542 21.3067C38.8848 21.605 39.4592 21.9607 40.25 21.9607C41.0403 21.9607 41.6152 21.605 41.9584 21.3065C42.1249 21.1618 42.3384 21.0836 42.5589 21.0922C44.6631 21.1583 46.375 22.927 46.375 25.0352C46.375 27.2149 44.6086 28.9882 42.4375 28.9882ZM37.7016 22.8778C36.671 23.0539 35.875 23.966 35.875 25.0352C35.875 26.2462 36.8563 27.2313 38.0625 27.2313H42.4375C43.6437 27.2313 44.625 26.2462 44.625 25.0352C44.625 23.9658 43.8292 23.0539 42.7984 22.8778C42.0514 23.4218 41.16 23.7176 40.25 23.7176C39.3398 23.7176 38.4484 23.4218 37.7016 22.8778Z" fill="#999999"/>
</g>
<g id="Group_4">
<g id="Group_5">
<path id="Vector_3" d="M36.9007 39.5298C36.8034 39.5298 36.7043 39.5133 36.6072 39.4786C36.1519 39.3159 35.9142 38.8134 36.0765 38.3564C36.5733 36.9562 37.8989 36.0156 39.375 36.0156H41.125C41.2186 36.0156 43.4285 36.0411 44.5327 38.258C44.7486 38.6922 44.5736 39.2197 44.1414 39.4367C43.7091 39.653 43.1834 39.4777 42.9673 39.0438C42.3415 37.787 41.1373 37.7725 41.125 37.7725H39.375C38.6372 37.7725 37.9741 38.244 37.725 38.9458C37.5975 39.3053 37.2604 39.5298 36.9007 39.5298Z" fill="#999999"/>
</g>
<g id="Group_6">
<path id="Vector_4" d="M41.125 48.3136H39.375C39.2814 48.3136 37.0716 48.2881 35.9673 46.0712C35.7514 45.637 35.9264 45.1095 36.3587 44.8925C36.7903 44.6756 37.3164 44.8512 37.5327 45.2854C38.1585 46.5422 39.3628 46.5567 39.375 46.5567H41.125C42.0899 46.5567 42.875 45.7685 42.875 44.7999C42.875 43.8312 42.0899 43.043 41.125 43.043H39.375C38.8918 43.043 38.5 42.6497 38.5 42.1646C38.5 41.6795 38.8918 41.2861 39.375 41.2861H41.125C43.0548 41.2861 44.625 42.8625 44.625 44.7999C44.625 46.7372 43.0548 48.3136 41.125 48.3136Z" fill="#999999"/>
</g>
<g id="Group_7">
<path id="Vector_5" d="M40.25 37.7725C39.7668 37.7725 39.375 37.3792 39.375 36.8941V35.1372C39.375 34.6521 39.7668 34.2588 40.25 34.2588C40.7332 34.2588 41.125 34.6521 41.125 35.1372V36.8941C41.125 37.3792 40.7332 37.7725 40.25 37.7725Z" fill="#999999"/>
</g>
<g id="Group_8">
<path id="Vector_6" d="M40.25 50.0706C39.7668 50.0706 39.375 49.6773 39.375 49.1922V47.4353C39.375 46.9502 39.7668 46.5569 40.25 46.5569C40.7332 46.5569 41.125 46.9502 41.125 47.4353V49.1922C41.125 49.6773 40.7332 50.0706 40.25 50.0706Z" fill="#999999"/>
</g>
</g>
</g>
<g id="Group_9">
<g id="Group_10">
<g id="Group_11">
<path id="Vector_7" d="M25.375 26.353C25.151 26.353 24.9272 26.2672 24.7564 26.0959C24.4145 25.7528 24.4145 25.1966 24.7564 24.8535L35.9137 13.6509C36.2552 13.3077 36.8093 13.3079 37.151 13.6509C37.4929 13.9939 37.4929 14.5502 37.1512 14.8932L25.9938 26.0959C25.823 26.2672 25.599 26.353 25.375 26.353Z" fill="#E84039"/>
</g>
<g id="Group_12">
<path id="Vector_8" d="M36.5323 15.1503C36.3022 15.1503 36.0791 15.0592 35.9137 14.8931C35.7127 14.6913 35.6217 14.4039 35.6702 14.1228L36.764 7.75414C36.7946 7.57538 36.8797 7.41045 37.0075 7.2822L44.0064 0.257383C44.2568 0.00615138 44.6329 -0.0691734 44.9599 0.0669835C45.2867 0.202921 45.5 0.523329 45.5 0.878434V5.27059H49.875C50.2289 5.27059 50.5479 5.48471 50.6833 5.8128C50.8187 6.14112 50.7439 6.51884 50.4936 6.77007L43.4947 13.7949C43.367 13.9231 43.2027 14.0086 43.0248 14.0393L36.6811 15.1374C36.6314 15.1461 36.5816 15.1503 36.5323 15.1503ZM38.4411 8.32731L37.6051 13.1947L42.4537 12.3556L47.7623 7.02745H44.625C44.1418 7.02745 43.75 6.63414 43.75 6.14902V2.99875L38.4411 8.32731Z" fill="#E84039"/>
</g>
</g>
<g id="Group_13">
<path id="Vector_9" d="M23.6259 35.8565C23.5734 35.8565 23.5202 35.8519 23.4668 35.842C18.4885 34.9236 14.875 30.5635 14.875 25.4745C14.875 19.6622 19.5853 14.9333 25.375 14.9333C26.3458 14.9333 27.3074 15.0664 28.2334 15.3289C28.6985 15.4606 28.9691 15.9462 28.8378 16.4131C28.7066 16.88 28.2229 17.1514 27.7578 17.0198C26.9868 16.8013 26.185 16.6904 25.3748 16.6904C20.55 16.6904 16.6248 20.6311 16.6248 25.4747C16.6248 29.7158 19.6352 33.349 23.7829 34.1141C24.2583 34.2017 24.5728 34.6596 24.4853 35.1368C24.4081 35.5602 24.04 35.8565 23.6259 35.8565Z" fill="#999999"/>
</g>
<g id="Group_14">
<path id="Vector_10" d="M39.375 43.0431H25.375C20.3998 43.0431 15.6433 40.9061 12.3248 37.1801C8.96088 33.4026 7.42088 28.5249 7.98854 23.4456C8.89438 15.3429 15.4179 8.84888 23.5003 8.00427C25.7029 7.7739 27.8843 7.94805 29.9834 8.52167C30.4498 8.64904 30.7248 9.13196 30.5979 9.59994C30.471 10.0679 29.9902 10.3446 29.5238 10.2168C27.6343 9.70052 25.6686 9.54394 23.6817 9.75169C16.4111 10.5115 10.5427 16.3531 9.72782 23.6417C9.21638 28.2172 10.6019 32.6094 13.6294 36.0091C16.616 39.3627 20.8972 41.2863 25.375 41.2863H39.375C39.8582 41.2863 40.25 41.6796 40.25 42.1647C40.25 42.6498 39.8582 43.0431 39.375 43.0431Z" fill="#999999"/>
</g>
<g id="Group_15">
<g id="Group_16">
<path id="Vector_11" d="M49.3104 21.0826C48.9079 21.0826 48.5459 20.8021 48.4564 20.3915C48.1416 18.9438 47.6875 17.5185 47.1069 16.1554C46.9168 15.7094 47.1231 15.1931 47.5674 15.0025C48.0117 14.8114 48.5257 15.0187 48.7158 15.4648C49.3397 16.9296 49.8275 18.4609 50.1661 20.0166C50.2692 20.4905 49.9701 20.9587 49.4979 21.0621C49.4351 21.076 49.3721 21.0826 49.3104 21.0826Z" fill="#999999"/>
</g>
<g id="Group_17">
<path id="Vector_12" d="M20.1259 50.3833C20.064 50.3833 20.0014 50.3767 19.9384 50.3629C14.3721 49.1427 9.31306 46.0147 5.69362 41.5553C2.02212 37.0316 0 31.3207 0 25.4745C0 11.428 11.3833 0 25.375 0C28.4968 0 31.5457 0.562854 34.4369 1.67253C34.8882 1.8458 35.1144 2.35376 34.9418 2.80681C34.7692 3.25986 34.2632 3.48693 33.812 3.31366C31.1211 2.28063 28.2824 1.75686 25.375 1.75686C12.3482 1.75686 1.75 12.3966 1.75 25.4745C1.75 36.5436 9.55631 46.2889 20.3116 48.6464C20.7839 48.7501 21.0829 49.2183 20.9799 49.6922C20.8906 50.1027 20.5282 50.3833 20.1259 50.3833Z" fill="#999999"/>
</g>
</g>
</g>
</g>
</g>
<defs>
<clipPath id="clip0_73_952">
<rect width="56" height="56" fill="white"/>
</clipPath>
</defs>
</svg>
