<svg width="50" height="50" viewBox="0 0 50 50" fill="none" xmlns="http://www.w3.org/2000/svg">
<g id="logo2" clip-path="url(#clip0_73_808)">
<g id="credit_card_2_">
<g id="Group">
<g id="Group_2">
<path id="Vector" d="M46.875 50H9.375C7.65195 50 6.25 48.598 6.25 46.875V23.4375C6.25 21.7145 7.65195 20.3125 9.375 20.3125H46.875C48.598 20.3125 50 21.7145 50 23.4375V46.875C50 48.598 48.598 50 46.875 50ZM9.375 21.875C8.51348 21.875 7.8125 22.576 7.8125 23.4375V46.875C7.8125 47.7365 8.51348 48.4375 9.375 48.4375H46.875C47.7365 48.4375 48.4375 47.7365 48.4375 46.875V23.4375C48.4375 22.576 47.7365 21.875 46.875 21.875H9.375Z" fill="#E84039"/>
</g>
<g id="Group_3">
<path id="Vector_2" d="M19.5312 33.5938H13.2812C11.9889 33.5938 10.9375 32.5424 10.9375 31.25V27.3438C10.9375 26.0514 11.9889 25 13.2812 25H19.5312C20.8236 25 21.875 26.0514 21.875 27.3438V31.25C21.875 32.5424 20.8236 33.5938 19.5312 33.5938ZM13.2812 26.5625C12.8504 26.5625 12.5 26.9129 12.5 27.3438V31.25C12.5 31.6809 12.8504 32.0312 13.2812 32.0312H19.5312C19.9621 32.0312 20.3125 31.6809 20.3125 31.25V27.3438C20.3125 26.9129 19.9621 26.5625 19.5312 26.5625H13.2812Z" fill="#E84039"/>
</g>
<g id="Group_4">
<g id="Group_5">
<path id="Vector_3" d="M15.625 40.625H11.7188C11.2873 40.625 10.9375 40.2752 10.9375 39.8438C10.9375 39.4123 11.2873 39.0625 11.7188 39.0625H15.625C16.0564 39.0625 16.4062 39.4123 16.4062 39.8438C16.4062 40.2752 16.0564 40.625 15.625 40.625Z" fill="#E84039"/>
</g>
<g id="Group_6">
<path id="Vector_4" d="M25 40.625H21.0938C20.6623 40.625 20.3125 40.2752 20.3125 39.8438C20.3125 39.4123 20.6623 39.0625 21.0938 39.0625H25C25.4314 39.0625 25.7812 39.4123 25.7812 39.8438C25.7812 40.2752 25.4314 40.625 25 40.625Z" fill="#E84039"/>
</g>
<g id="Group_7">
<path id="Vector_5" d="M35.1562 40.625H31.25C30.8186 40.625 30.4688 40.2752 30.4688 39.8438C30.4688 39.4123 30.8186 39.0625 31.25 39.0625H35.1562C35.5877 39.0625 35.9375 39.4123 35.9375 39.8438C35.9375 40.2752 35.5877 40.625 35.1562 40.625Z" fill="#E84039"/>
</g>
<g id="Group_8">
<path id="Vector_6" d="M44.5312 40.625H40.625C40.1936 40.625 39.8438 40.2752 39.8438 39.8438C39.8438 39.4123 40.1936 39.0625 40.625 39.0625H44.5312C44.9627 39.0625 45.3125 39.4123 45.3125 39.8438C45.3125 40.2752 44.9627 40.625 44.5312 40.625Z" fill="#E84039"/>
</g>
<g id="Group_9">
<path id="Vector_7" d="M19.5312 45.3125H11.7188C11.2873 45.3125 10.9375 44.9627 10.9375 44.5312C10.9375 44.0998 11.2873 43.75 11.7188 43.75H19.5312C19.9627 43.75 20.3125 44.0998 20.3125 44.5312C20.3125 44.9627 19.9627 45.3125 19.5312 45.3125Z" fill="#E84039"/>
</g>
<g id="Group_10">
<path id="Vector_8" d="M44.5312 45.3125H26.5625C26.1311 45.3125 25.7812 44.9627 25.7812 44.5312C25.7812 44.0998 26.1311 43.75 26.5625 43.75H44.5312C44.9627 43.75 45.3125 44.0998 45.3125 44.5312C45.3125 44.9627 44.9627 45.3125 44.5312 45.3125Z" fill="#E84039"/>
</g>
</g>
</g>
<g id="Group_11">
<g id="Group_12">
<path id="Vector_9" d="M3.1248 29.6875C1.40176 29.6875 0 28.2857 0 26.5627V3.125C0 1.40195 1.40195 0 3.125 0H40.625C42.348 0 43.75 1.40195 43.75 3.125V17.1875C43.75 17.6189 43.4002 17.9688 42.9688 17.9688C42.5373 17.9688 42.1875 17.6189 42.1875 17.1875V3.125C42.1875 2.26348 41.4865 1.5625 40.625 1.5625H3.125C2.26348 1.5625 1.5625 2.26348 1.5625 3.125V26.5627C1.5625 27.4242 2.26328 28.125 3.1248 28.125C3.55625 28.125 3.90605 28.4748 3.90605 28.9062C3.90605 29.3377 3.55625 29.6875 3.1248 29.6875Z" fill="#999999"/>
</g>
<g id="Group_13">
<path id="Vector_10" d="M42.9688 10.1562H7.03125C6.5998 10.1562 6.25 9.80645 6.25 9.375C6.25 8.94355 6.5998 8.59375 7.03125 8.59375H42.9688C43.4002 8.59375 43.75 8.94355 43.75 9.375C43.75 9.80645 43.4002 10.1562 42.9688 10.1562Z" fill="#999999"/>
</g>
</g>
</g>
</g>
<defs>
<clipPath id="clip0_73_808">
<rect width="50" height="50" fill="white"/>
</clipPath>
</defs>
</svg>
