<svg width="56" height="56" viewBox="0 0 56 56" fill="none" xmlns="http://www.w3.org/2000/svg">
<g id="&#236;&#131;&#129;&#235;&#139;&#180; 1" clip-path="url(#clip0_73_833)">
<g id="calls">
<g id="Group">
<g id="Group_2">
<path id="Vector" d="M34.6812 55.9944C33.2487 55.9944 31.8069 55.7647 30.4189 55.3003C19.0849 51.5074 11.7423 43.7352 7.5783 37.883C3.18938 31.7144 1.35728 26.4585 1.19582 25.9817C-0.0797591 22.8181 0.0416103 19.3476 1.53836 16.2066C3.07542 12.9811 5.90592 10.5443 9.30406 9.52095L10.8243 9.06311C13.7529 8.18111 16.8455 9.65351 18.0187 12.4872L20.6688 18.8889C21.4635 20.8093 21.397 22.9817 20.486 24.8492C19.5752 26.7167 17.9065 28.1016 15.9081 28.6487L12.9981 29.4456C12.5344 29.5724 12.0546 29.2977 11.928 28.8315C11.8012 28.3652 12.0751 27.8841 12.5396 27.757L15.4497 26.9604C16.9647 26.5456 18.2298 25.4954 18.9206 24.0796C19.6113 22.6637 19.6617 21.0165 19.0592 19.5605L16.4091 13.159C15.5802 11.1565 13.394 10.1159 11.3253 10.7394L9.805 11.1972C6.87644 12.0792 4.43663 14.1805 3.11093 16.9622C1.82468 19.6611 1.72161 22.6392 2.82047 25.3473C2.82767 25.365 2.8342 25.3827 2.84008 25.4007C2.85773 25.4534 4.66216 30.7889 9.03059 36.9139C13.041 42.5373 20.1027 50.0039 30.9697 53.6404C33.9362 54.6331 37.1831 54.3962 39.8785 52.9914C42.4325 51.6605 44.2932 49.4078 45.1179 46.6485L45.574 45.1221C46.1948 43.0448 45.1584 40.851 43.1636 40.0186L36.787 37.3584C35.3366 36.7531 33.6956 36.8039 32.2854 37.4975C30.8749 38.1908 29.8292 39.4608 29.4159 40.982L28.6221 43.9034C28.4953 44.3696 28.0159 44.6434 27.5518 44.5174C27.0874 44.3901 26.8135 43.9093 26.9403 43.443L27.7342 40.5215C28.2789 38.5154 29.6586 36.8404 31.5188 35.9258C33.379 35.0114 35.5432 34.9443 37.4561 35.7427L43.8327 38.4029C46.6556 39.5807 48.1221 42.6854 47.2435 45.6252L46.7874 47.1516C45.8263 50.3684 43.6578 52.994 40.6817 54.5449C38.8365 55.5059 36.7691 55.9944 34.6812 55.9944Z" fill="#999999"/>
</g>
<g id="Group_3">
<path id="Vector_2" d="M28.0957 43.3883C27.932 43.3883 27.7664 43.3422 27.6193 43.2457C22.0854 39.6105 17.3038 34.7179 13.4075 28.7034C13.145 28.2983 13.2594 27.7562 13.6629 27.4928C14.0665 27.229 14.6064 27.3441 14.8688 27.7492C18.6323 33.5588 23.2433 38.2796 28.5737 41.7812C28.9766 42.0456 29.0893 42.5879 28.8256 42.9924C28.6587 43.249 28.38 43.3883 28.0957 43.3883Z" fill="#999999"/>
</g>
</g>
<g id="Group_4">
<g id="Group_5">
<g id="Group_6">
<g id="Group_7">
<path id="Vector_3" d="M35.6265 14C34.9046 14 34.3191 14.5878 34.3191 15.3125C34.3191 16.0372 34.9046 16.625 35.6265 16.625C36.3484 16.625 36.9339 16.0372 36.9339 15.3125C36.9339 14.5878 36.3484 14 35.6265 14Z" fill="#E84039"/>
</g>
</g>
</g>
<g id="Group_8">
<g id="Group_9">
<g id="Group_10">
<path id="Vector_4" d="M40.856 14C40.1341 14 39.5486 14.5878 39.5486 15.3125C39.5486 16.0372 40.1341 16.625 40.856 16.625C41.5779 16.625 42.1634 16.0372 42.1634 15.3125C42.1634 14.5878 41.5779 14 40.856 14Z" fill="#E84039"/>
</g>
</g>
</g>
<g id="Group_11">
<g id="Group_12">
<g id="Group_13">
<path id="Vector_5" d="M46.0856 14C45.3637 14 44.7782 14.5878 44.7782 15.3125C44.7782 16.0372 45.3637 16.625 46.0856 16.625C46.8075 16.625 47.393 16.0372 47.393 15.3125C47.393 14.5878 46.8075 14 46.0856 14Z" fill="#E84039"/>
</g>
</g>
</g>
<g id="Group_14">
<path id="Vector_6" d="M26.4747 30.625C26.2474 30.625 26.0245 30.5358 25.8583 30.3686C25.6208 30.1302 25.5408 29.7756 25.653 29.4578L27.8355 23.2746C26.3738 20.8788 25.6031 18.1355 25.6031 15.3125C25.6031 6.86919 32.4456 0 40.856 0C49.2665 0 56.1089 6.86919 56.1089 15.3125C56.1089 23.7558 49.2665 30.625 40.856 30.625C38.0438 30.625 35.3112 29.8513 32.9247 28.3837L26.7658 30.5749C26.6708 30.6086 26.5723 30.625 26.4747 30.625ZM33.0326 26.5418C33.1997 26.5418 33.3653 26.5902 33.5091 26.684C35.6964 28.1175 38.2371 28.875 40.856 28.875C48.3053 28.875 54.3658 22.7909 54.3658 15.3125C54.3658 7.83409 48.3053 1.75 40.856 1.75C33.4067 1.75 27.3463 7.83409 27.3463 15.3125C27.3463 17.9417 28.1009 20.4921 29.5286 22.6881C29.6772 22.9165 29.7109 23.2015 29.6203 23.4585L27.907 28.3122L32.7415 26.5923C32.836 26.5584 32.9345 26.5418 33.0326 26.5418Z" fill="#E84039"/>
</g>
</g>
</g>
</g>
<defs>
<clipPath id="clip0_73_833">
<rect width="56" height="56" fill="white"/>
</clipPath>
</defs>
</svg>
