<svg xmlns="http://www.w3.org/2000/svg" width="20.625" height="15" viewBox="0 0 20.625 15">
  <path id="패스_9353" data-name="패스 9353" d="M3.93,14.312a.562.562,0,0,0,.586-.586v-2.7l2.156,2.953a.968.968,0,0,0,.293.234.764.764,0,0,0,.363.094.681.681,0,0,0,.7-.7V9.273a.586.586,0,1,0-1.172,0v2.7L4.75,9.039a1.145,1.145,0,0,0-.293-.247.689.689,0,0,0-.363-.1.76.76,0,0,0-.75.75v4.289a.562.562,0,0,0,.586.586Zm5.508,0h2.7a.586.586,0,1,0,0-1.172H10.375V12.109h1.758a.586.586,0,1,0,0-1.172H10.375V9.859h1.758a.586.586,0,1,0,0-1.172h-2.7a.481.481,0,0,0-.469.469v4.687a.481.481,0,0,0,.469.469Zm5.156,0h3.75a.921.921,0,0,0,.938-.938v-4.1a.586.586,0,1,0-1.172,0v3.633H17.078v-2.7a.586.586,0,1,0-1.172,0v2.7H14.828V9.273a.586.586,0,1,0-1.172,0v4.1a.921.921,0,0,0,.937.938ZM2.875,19a1.806,1.806,0,0,1-1.325-.551A1.8,1.8,0,0,1,1,17.125V5.875A1.806,1.806,0,0,1,1.551,4.55,1.8,1.8,0,0,1,2.875,4H19.75a1.881,1.881,0,0,1,1.875,1.875v11.25A1.881,1.881,0,0,1,19.75,19Z" transform="translate(-1 -4)" fill="#c92323"/>
</svg>
